<svg width="830" height="135" viewBox="0 0 830 135" fill="none" xmlns="http://www.w3.org/2000/svg">
<g clip-path="url(#clip0_623_6287)">
<rect width="830" height="135" rx="14" fill="#163030"/>
<rect width="830" height="135" rx="14" fill="#142727" fill-opacity="0.4"/>
<rect width="830" height="135" rx="14" fill="url(#paint0_radial_623_6287)" fill-opacity="0.2"/>
<rect width="830" height="135" rx="14" fill="url(#paint1_radial_623_6287)" fill-opacity="0.2"/>
<path fill-rule="evenodd" clip-rule="evenodd" d="M39.0098 30.8346L28 30.835V25.123H39.0098V30.835H44.754V41.8771H39.0098V36.5471C36.093 36.5979 33.7442 38.9647 33.7442 41.8771H28C28 35.8103 32.9205 30.8862 39.0098 30.835V30.8346Z" fill="#A0FFFD"/>
<path d="M69.4139 42H65.4379L64.0379 37.94H58.1859L56.7579 42H52.9779L59.0259 25.368H63.3659L69.4139 42ZM63.0859 35L61.7419 31.22C61.6112 30.8467 61.4992 30.5013 61.4059 30.184C61.3312 29.848 61.2566 29.512 61.1819 29.176H61.0419C60.9672 29.512 60.8832 29.848 60.7899 30.184C60.7152 30.5013 60.6126 30.8467 60.4819 31.22L59.1099 35H63.0859ZM82.421 35.7C82.421 36.9507 82.1503 38.0707 81.609 39.06C81.0863 40.0493 80.3583 40.8333 79.425 41.412C78.5103 41.972 77.4463 42.252 76.233 42.252C75.1877 42.252 74.3383 42.084 73.685 41.748V47.18H70.101V29.764L73.685 29.596V30.492C74.1143 30.1373 74.5903 29.876 75.113 29.708C75.6357 29.5213 76.233 29.428 76.905 29.428C77.9317 29.428 78.8557 29.68 79.677 30.184C80.517 30.688 81.1797 31.4067 81.665 32.34C82.169 33.2733 82.421 34.3933 82.421 35.7ZM78.725 35.812C78.725 35.14 78.613 34.5613 78.389 34.076C78.165 33.572 77.829 33.1893 77.381 32.928C76.9517 32.648 76.4103 32.508 75.757 32.508C74.9543 32.508 74.2637 32.7227 73.685 33.152V38.836C73.9277 38.9293 74.2077 39.0133 74.525 39.088C74.861 39.144 75.2063 39.172 75.561 39.172C76.2143 39.172 76.7743 39.0413 77.241 38.78C77.7077 38.5 78.0717 38.108 78.333 37.604C78.5943 37.0813 78.725 36.484 78.725 35.812ZM95.7998 35.7C95.7998 36.9507 95.5291 38.0707 94.9878 39.06C94.4651 40.0493 93.7371 40.8333 92.8038 41.412C91.8891 41.972 90.8251 42.252 89.6117 42.252C88.5664 42.252 87.7171 42.084 87.0638 41.748V47.18H83.4797V29.764L87.0638 29.596V30.492C87.4931 30.1373 87.9691 29.876 88.4918 29.708C89.0144 29.5213 89.6118 29.428 90.2838 29.428C91.3104 29.428 92.2344 29.68 93.0558 30.184C93.8958 30.688 94.5584 31.4067 95.0437 32.34C95.5478 33.2733 95.7998 34.3933 95.7998 35.7ZM92.1038 35.812C92.1038 35.14 91.9918 34.5613 91.7678 34.076C91.5438 33.572 91.2078 33.1893 90.7598 32.928C90.3304 32.648 89.7891 32.508 89.1358 32.508C88.3331 32.508 87.6424 32.7227 87.0638 33.152V38.836C87.3064 38.9293 87.5864 39.0133 87.9038 39.088C88.2397 39.144 88.5851 39.172 88.9398 39.172C89.5931 39.172 90.1531 39.0413 90.6198 38.78C91.0864 38.5 91.4504 38.108 91.7118 37.604C91.9731 37.0813 92.1038 36.484 92.1038 35.812ZM103.517 42H99.7935V28.728H95.0335V25.368H108.417L108.137 28.728H103.517V42ZM119.345 42H115.957V41.048C115.509 41.4027 114.967 41.692 114.333 41.916C113.698 42.14 112.998 42.252 112.233 42.252C110.87 42.252 109.825 41.9253 109.097 41.272C108.387 40.6187 108.033 39.7133 108.033 38.556C108.033 37.3053 108.471 36.3627 109.349 35.728C110.226 35.0747 111.411 34.748 112.905 34.748C113.446 34.748 113.987 34.7947 114.529 34.888C115.07 34.9813 115.509 35.1027 115.845 35.252V34.58C115.845 33.852 115.611 33.3387 115.145 33.04C114.697 32.7227 113.987 32.564 113.017 32.564C112.326 32.564 111.617 32.648 110.889 32.816C110.179 32.984 109.61 33.1987 109.181 33.46L109.041 30.324C109.619 30.044 110.301 29.8293 111.085 29.68C111.887 29.512 112.709 29.428 113.549 29.428C115.415 29.428 116.843 29.8293 117.833 30.632C118.841 31.416 119.345 32.6573 119.345 34.356V42ZM115.845 39.144V37.38C115.583 37.2493 115.257 37.1467 114.865 37.072C114.491 36.9973 114.127 36.96 113.773 36.96C113.063 36.96 112.522 37.0907 112.149 37.352C111.775 37.5947 111.589 37.9773 111.589 38.5C111.589 38.9853 111.747 39.34 112.065 39.564C112.382 39.7693 112.849 39.872 113.465 39.872C113.894 39.872 114.333 39.8067 114.781 39.676C115.229 39.5267 115.583 39.3493 115.845 39.144ZM139.897 29.68L136.257 42H132.449L130.993 37.66C130.732 36.764 130.517 36.0453 130.349 35.504C130.181 34.944 130.041 34.4307 129.929 33.964H129.789C129.696 34.4307 129.556 34.944 129.369 35.504C129.201 36.0453 128.986 36.764 128.725 37.66L127.269 42H123.461L119.821 29.764L123.433 29.596L125.085 35.476C125.178 35.868 125.272 36.3347 125.365 36.876C125.477 37.3987 125.561 37.884 125.617 38.332H125.757C125.813 37.884 125.906 37.3987 126.037 36.876C126.168 36.3347 126.289 35.868 126.401 35.476L128.025 30.604H131.833L133.457 35.476C133.569 35.868 133.69 36.3347 133.821 36.876C133.952 37.3987 134.045 37.884 134.101 38.332H134.241C134.297 37.884 134.372 37.3987 134.465 36.876C134.577 36.3347 134.68 35.868 134.773 35.476L136.369 29.68H139.897ZM153.061 35.644C153.061 36.9507 152.781 38.108 152.221 39.116C151.661 40.1053 150.858 40.88 149.813 41.44C148.768 41.9813 147.517 42.252 146.061 42.252C145.053 42.252 144.092 42.1493 143.177 41.944C142.262 41.72 141.45 41.44 140.741 41.104V24.416L144.325 24.248V30.436C144.829 30.0813 145.333 29.8293 145.837 29.68C146.36 29.512 146.929 29.428 147.545 29.428C148.59 29.428 149.524 29.68 150.345 30.184C151.185 30.688 151.848 31.4067 152.333 32.34C152.818 33.2547 153.061 34.356 153.061 35.644ZM149.365 35.812C149.365 35.14 149.253 34.5613 149.029 34.076C148.805 33.572 148.469 33.1893 148.021 32.928C147.592 32.648 147.05 32.508 146.397 32.508C145.594 32.508 144.904 32.7227 144.325 33.152V38.836C144.568 38.9293 144.848 39.0133 145.165 39.088C145.501 39.144 145.846 39.172 146.201 39.172C146.854 39.172 147.414 39.0413 147.881 38.78C148.348 38.5 148.712 38.108 148.973 37.604C149.234 37.0813 149.365 36.484 149.365 35.812ZM157.704 24.248V42H154.12V24.416L157.704 24.248ZM170.434 36.708H162.538C162.65 37.212 162.874 37.6507 163.21 38.024C163.565 38.3787 164.013 38.6493 164.554 38.836C165.114 39.0227 165.767 39.116 166.514 39.116C167.149 39.116 167.83 39.032 168.558 38.864C169.286 38.6773 169.883 38.444 170.35 38.164L170.49 41.216C170.005 41.552 169.351 41.8133 168.53 42C167.727 42.168 166.971 42.252 166.262 42.252C164.675 42.252 163.313 41.9907 162.174 41.468C161.054 40.9267 160.205 40.1707 159.626 39.2C159.066 38.2293 158.786 37.0907 158.786 35.784C158.786 34.496 159.047 33.3853 159.57 32.452C160.111 31.5 160.849 30.7627 161.782 30.24C162.734 29.6987 163.798 29.428 164.974 29.428C166.057 29.428 167.018 29.6427 167.858 30.072C168.717 30.5013 169.379 31.1267 169.846 31.948C170.331 32.7507 170.574 33.7213 170.574 34.86C170.574 35.1027 170.555 35.4013 170.518 35.756C170.499 36.092 170.471 36.4093 170.434 36.708ZM165.002 32.004C164.274 32.004 163.677 32.2467 163.21 32.732C162.762 33.2173 162.491 33.8613 162.398 34.664H167.242C167.242 34.6267 167.242 34.5707 167.242 34.496C167.242 34.4027 167.242 34.3373 167.242 34.3C167.242 33.6093 167.037 33.0587 166.626 32.648C166.234 32.2187 165.693 32.004 165.002 32.004Z" fill="#A0FFFD"/>
<path d="M48.4377 78H43.5601L41.8427 73.0194H34.6637L32.9119 78H28.2748L35.6942 57.5966H41.0183L48.4377 78ZM40.6748 69.4127L39.0261 64.7756C38.8658 64.3176 38.7284 63.894 38.6139 63.5047C38.5223 63.0925 38.4307 62.6803 38.3391 62.2681H38.1673C38.0757 62.6803 37.9727 63.0925 37.8582 63.5047C37.7666 63.894 37.6407 64.3176 37.4804 64.7756L35.7972 69.4127H40.6748ZM64.2568 78H59.8601V68.9662C59.8601 68.0731 59.6426 67.4319 59.2075 67.0426C58.7724 66.6533 58.177 66.4587 57.4214 66.4587C56.9176 66.4587 56.4023 66.5503 55.8756 66.7335C55.349 66.8938 54.8452 67.1228 54.3643 67.4205V78H49.9676V62.9894L54.3643 62.7833V64.1917C55.0971 63.6421 55.8413 63.2413 56.597 62.9894C57.3756 62.7146 58.1885 62.5772 59.0358 62.5772C60.6158 62.5772 61.8753 63.0238 62.8142 63.9169C63.7759 64.787 64.2568 66.161 64.2568 68.0388V78ZM86.6847 78H82.5284V76.8321C81.9788 77.2672 81.3147 77.6222 80.5362 77.897C79.7576 78.1717 78.8989 78.3091 77.96 78.3091C76.2883 78.3091 75.006 77.9084 74.1129 77.1069C73.2427 76.3054 72.8076 75.1948 72.8076 73.7751C72.8076 72.2408 73.3457 71.0844 74.422 70.3058C75.4983 69.5043 76.9524 69.1036 78.7844 69.1036C79.4484 69.1036 80.1125 69.1608 80.7766 69.2753C81.4407 69.3898 81.9788 69.5387 82.391 69.7219V68.8975C82.391 68.0044 82.1048 67.3747 81.5323 67.0083C80.9827 66.619 80.1125 66.4243 78.9218 66.4243C78.0745 66.4243 77.2043 66.5274 76.3112 66.7335C75.441 66.9396 74.7426 67.2029 74.2159 67.5235L74.0442 63.6764C74.7541 63.3329 75.5899 63.0696 76.5517 62.8864C77.5363 62.6803 78.5439 62.5772 79.5744 62.5772C81.8643 62.5772 83.6161 63.0696 84.8298 64.0543C86.0664 65.016 86.6847 66.5388 86.6847 68.6227V78ZM82.391 74.4964V72.3324C82.0704 72.1721 81.6697 72.0462 81.1888 71.9546C80.7308 71.863 80.2843 71.8172 79.8492 71.8172C78.979 71.8172 78.3149 71.9775 77.8569 72.298C77.3989 72.5957 77.1699 73.0652 77.1699 73.7064C77.1699 74.3017 77.3646 74.7368 77.7539 75.0116C78.1432 75.2635 78.7157 75.3895 79.4713 75.3895C79.998 75.3895 80.5362 75.3093 81.0857 75.149C81.6353 74.9658 82.0704 74.7483 82.391 74.4964ZM112.584 62.8864L108.119 78H103.447L101.661 72.6759C101.341 71.5767 101.077 70.6951 100.871 70.031C100.665 69.344 100.493 68.7143 100.356 68.1418H100.184C100.07 68.7143 99.8979 69.344 99.6689 70.031C99.4628 70.6951 99.1995 71.5767 98.8789 72.6759L97.0927 78H92.4212L87.9558 62.9894L92.3869 62.7833L94.4135 69.9967C94.528 70.4775 94.6425 71.05 94.757 71.7141C94.8944 72.3553 94.9974 72.9507 95.0661 73.5003H95.2379C95.3066 72.9507 95.421 72.3553 95.5813 71.7141C95.7416 71.05 95.8905 70.4775 96.0279 69.9967L98.0201 64.0199H102.692L104.684 69.9967C104.821 70.4775 104.97 71.05 105.13 71.7141C105.291 72.3553 105.405 72.9507 105.474 73.5003H105.646C105.714 72.9507 105.806 72.3553 105.92 71.7141C106.058 71.05 106.184 70.4775 106.298 69.9967L108.256 62.8864H112.584ZM137.767 78H133.37V68.9662C133.37 68.8517 133.359 68.7486 133.336 68.657C133.313 68.5654 133.29 68.4738 133.267 68.3822C133.198 67.6953 132.969 67.2029 132.58 66.9052C132.191 66.6075 131.687 66.4587 131.069 66.4587C131.046 66.4587 131.012 66.4701 130.966 66.493C130.92 66.493 130.886 66.493 130.863 66.493C130.428 66.5159 129.97 66.6075 129.489 66.7678C129.031 66.9281 128.584 67.1457 128.149 67.4205C128.172 67.6266 128.183 67.8327 128.183 68.0388C128.206 68.2449 128.218 68.4624 128.218 68.6914V78H123.855V68.9662C123.855 68.8517 123.844 68.7486 123.821 68.657C123.798 68.5654 123.775 68.4738 123.752 68.3822C123.684 67.6953 123.455 67.2029 123.065 66.9052C122.676 66.6075 122.172 66.4587 121.554 66.4587C121.119 66.4587 120.638 66.5503 120.111 66.7335C119.608 66.8938 119.138 67.1228 118.703 67.4205V78H114.306V62.9894L118.703 62.7833V64.1917C119.207 63.8024 119.711 63.4932 120.214 63.2642C120.741 63.0123 121.256 62.852 121.76 62.7833C122.356 62.6459 122.985 62.6116 123.649 62.6803C124.474 62.7261 125.218 62.9207 125.882 63.2642C126.546 63.6077 127.073 64.123 127.462 64.8099C128.264 64.0314 129.088 63.4703 129.935 63.1268C130.805 62.7604 131.687 62.5772 132.58 62.5772C134.114 62.5772 135.362 63.0238 136.324 63.9169C137.286 64.787 137.767 66.161 137.767 68.0388V78ZM153.648 78H149.492V76.8321C148.942 77.2672 148.278 77.6222 147.499 77.897C146.721 78.1717 145.862 78.3091 144.923 78.3091C143.252 78.3091 141.969 77.9084 141.076 77.1069C140.206 76.3054 139.771 75.1948 139.771 73.7751C139.771 72.2408 140.309 71.0844 141.385 70.3058C142.462 69.5043 143.916 69.1036 145.748 69.1036C146.412 69.1036 147.076 69.1608 147.74 69.2753C148.404 69.3898 148.942 69.5387 149.354 69.7219V68.8975C149.354 68.0044 149.068 67.3747 148.496 67.0083C147.946 66.619 147.076 66.4243 145.885 66.4243C145.038 66.4243 144.168 66.5274 143.275 66.7335C142.404 66.9396 141.706 67.2029 141.179 67.5235L141.008 63.6764C141.717 63.3329 142.553 63.0696 143.515 62.8864C144.5 62.6803 145.507 62.5772 146.538 62.5772C148.828 62.5772 150.579 63.0696 151.793 64.0543C153.03 65.016 153.648 66.5388 153.648 68.6227V78ZM149.354 74.4964V72.3324C149.034 72.1721 148.633 72.0462 148.152 71.9546C147.694 71.863 147.248 71.8172 146.813 71.8172C145.942 71.8172 145.278 71.9775 144.82 72.298C144.362 72.5957 144.133 73.0652 144.133 73.7064C144.133 74.3017 144.328 74.7368 144.717 75.0116C145.107 75.2635 145.679 75.3895 146.435 75.3895C146.961 75.3895 147.499 75.3093 148.049 75.149C148.599 74.9658 149.034 74.7483 149.354 74.4964ZM155.735 78V74.2559L163.12 66.6648H156.147V62.8864H168.341V66.6304L160.99 74.2216H168.753V78H155.735ZM173.205 55.9479C173.892 55.9479 174.453 56.1769 174.888 56.6349C175.323 57.0699 175.541 57.6195 175.541 58.2836C175.541 58.9706 175.323 59.5431 174.888 60.0011C174.453 60.4362 173.892 60.6537 173.205 60.6537C172.495 60.6537 171.9 60.4362 171.419 60.0011C170.961 59.5431 170.732 58.9706 170.732 58.2836C170.732 57.6195 170.961 57.0699 171.419 56.6349C171.9 56.1769 172.495 55.9479 173.205 55.9479ZM175.335 62.7833V78H170.938V62.9894L175.335 62.7833ZM192.532 78H188.135V68.9662C188.135 68.0731 187.918 67.4319 187.483 67.0426C187.048 66.6533 186.452 66.4587 185.697 66.4587C185.193 66.4587 184.677 66.5503 184.151 66.7335C183.624 66.8938 183.12 67.1228 182.639 67.4205V78H178.243V62.9894L182.639 62.7833V64.1917C183.372 63.6421 184.116 63.2413 184.872 62.9894C185.651 62.7146 186.464 62.5772 187.311 62.5772C188.891 62.5772 190.15 63.0238 191.089 63.9169C192.051 64.787 192.532 66.161 192.532 68.0388V78ZM209.526 62.3712L209.492 65.7717H207.225C207.454 66.0694 207.625 66.4129 207.74 66.8022C207.877 67.1686 207.946 67.5579 207.946 67.9701C207.946 69.5501 207.396 70.821 206.297 71.7828C205.198 72.7217 203.698 73.2369 201.797 73.3285L200.217 74.8742C200.492 74.8284 200.813 74.7941 201.179 74.7712C201.546 74.7254 201.912 74.7025 202.278 74.7025C202.645 74.6796 202.931 74.6681 203.137 74.6681C205.267 74.6681 206.893 75.0803 208.015 75.9047C209.16 76.7062 209.732 77.8741 209.732 79.4083C209.732 80.9197 209.102 82.1677 207.843 83.1524C206.606 84.1599 204.603 84.6637 201.832 84.6637C200.229 84.6637 198.729 84.5149 197.332 84.2172C195.958 83.9195 194.847 83.5188 194 83.015L194.344 79.2366C194.825 79.5801 195.477 79.8892 196.302 80.164C197.126 80.4388 198.042 80.6563 199.049 80.8166C200.08 80.9998 201.088 81.0914 202.072 81.0914C203.057 81.0914 203.801 81.0227 204.305 80.8853C204.809 80.7708 205.164 80.5876 205.37 80.3357C205.576 80.1067 205.679 79.8205 205.679 79.477C205.679 78.9503 205.416 78.5725 204.889 78.3435C204.385 78.1374 203.435 78.0343 202.038 78.0343C201.191 78.0343 200.286 78.0687 199.324 78.1374C198.362 78.2061 197.538 78.3206 196.851 78.4809V75.4238L199.29 73.1224C197.824 72.8476 196.691 72.2408 195.889 71.3019C195.088 70.363 194.687 69.2524 194.687 67.9701C194.687 66.8709 194.95 65.9206 195.477 65.1191C196.027 64.3176 196.794 63.6993 197.779 63.2642C198.786 62.8062 199.965 62.5772 201.317 62.5772C202.255 62.5772 203.126 62.7032 203.927 62.9551L209.526 62.3712ZM203.927 67.9701C203.927 67.2602 203.687 66.6762 203.206 66.2183C202.748 65.7603 202.118 65.5313 201.317 65.5313C200.492 65.5313 199.839 65.7603 199.359 66.2183C198.901 66.6762 198.672 67.2602 198.672 67.9701C198.672 68.657 198.901 69.2295 199.359 69.6875C199.839 70.1455 200.492 70.3745 201.317 70.3745C202.118 70.3745 202.748 70.157 203.206 69.7219C203.687 69.2639 203.927 68.6799 203.927 67.9701ZM236.657 78H231.78L230.062 73.0194H222.883L221.132 78H216.495L223.914 57.5966H229.238L236.657 78ZM228.895 69.4127L227.246 64.7756C227.085 64.3176 226.948 63.894 226.834 63.5047C226.742 63.0925 226.65 62.6803 226.559 62.2681H226.387C226.295 62.6803 226.192 63.0925 226.078 63.5047C225.986 63.894 225.86 64.3176 225.7 64.7756L224.017 69.4127H228.895ZM254.057 64.6038C254.057 66.1152 253.713 67.3976 253.026 68.4509C252.362 69.5043 251.389 70.2943 250.106 70.821C248.824 71.3477 247.278 71.6111 245.469 71.6111H243.065V78H238.496V57.5966H245.504C247.313 57.5966 248.847 57.8714 250.106 58.421C251.389 58.9706 252.362 59.7606 253.026 60.7911C253.713 61.8216 254.057 63.0925 254.057 64.6038ZM249.488 64.6038C249.488 63.8482 249.316 63.2299 248.973 62.749C248.652 62.2681 248.183 61.9132 247.565 61.6842C246.969 61.4552 246.248 61.3407 245.401 61.3407H243.065V67.867H245.401C246.248 67.867 246.969 67.7525 247.565 67.5235C248.183 67.2945 248.652 66.9396 248.973 66.4587C249.316 65.9778 249.488 65.3595 249.488 64.6038ZM261.104 57.5966V78H256.535V57.5966H261.104ZM53.1092 91.8864L48.6438 107H43.9723L42.1862 101.676C41.8656 100.577 41.6022 99.6951 41.3962 99.031C41.1901 98.344 41.0183 97.7143 40.8809 97.1418H40.7092C40.5947 97.7143 40.4229 98.344 40.1939 99.031C39.9878 99.6951 39.7245 100.577 39.4039 101.676L37.6178 107H32.9463L28.4809 91.9894L32.9119 91.7833L34.9385 98.9967C35.053 99.4775 35.1675 100.05 35.282 100.714C35.4194 101.355 35.5225 101.951 35.5912 102.5H35.7629C35.8316 101.951 35.9461 101.355 36.1064 100.714C36.2667 100.05 36.4155 99.4775 36.5529 98.9967L38.5452 93.0199H43.2167L45.2089 98.9967C45.3463 99.4775 45.4951 100.05 45.6554 100.714C45.8157 101.355 45.9302 101.951 45.9989 102.5H46.1707C46.2394 101.951 46.331 101.355 46.4455 100.714C46.5829 100.05 46.7088 99.4775 46.8233 98.9967L48.7812 91.8864H53.1092ZM64.4492 91.749L64.2775 95.9739C64.1401 95.9052 63.8997 95.8365 63.5562 95.7678C63.2356 95.6991 62.9264 95.6648 62.6287 95.6648C62.0105 95.6648 61.4036 95.7793 60.8082 96.0083C60.2358 96.2144 59.7091 96.5006 59.2282 96.867V107H54.8315V91.9894L59.2282 91.7833V93.5695C59.8923 92.8825 60.5678 92.3787 61.2548 92.0581C61.9647 91.7375 62.6974 91.5772 63.4531 91.5772C63.6134 91.5772 63.7852 91.5887 63.9684 91.6116C64.1744 91.6345 64.3347 91.6803 64.4492 91.749ZM79.1118 107H74.9555V105.832C74.4059 106.267 73.7418 106.622 72.9633 106.897C72.1847 107.172 71.326 107.309 70.3871 107.309C68.7154 107.309 67.4331 106.908 66.54 106.107C65.6698 105.305 65.2347 104.195 65.2347 102.775C65.2347 101.241 65.7728 100.084 66.8491 99.3058C67.9254 98.5043 69.3795 98.1036 71.2115 98.1036C71.8755 98.1036 72.5396 98.1608 73.2037 98.2753C73.8678 98.3898 74.4059 98.5387 74.8181 98.7219V97.8975C74.8181 97.0044 74.5319 96.3747 73.9594 96.0083C73.4098 95.619 72.5396 95.4243 71.3489 95.4243C70.5016 95.4243 69.6314 95.5274 68.7383 95.7335C67.8681 95.9396 67.1697 96.2029 66.643 96.5235L66.4713 92.6764C67.1812 92.3329 68.017 92.0696 68.9788 91.8864C69.9634 91.6803 70.971 91.5772 72.0015 91.5772C74.2914 91.5772 76.0432 92.0696 77.2569 93.0543C78.4935 94.016 79.1118 95.5388 79.1118 97.6227V107ZM74.8181 103.496V101.332C74.4975 101.172 74.0968 101.046 73.6159 100.955C73.1579 100.863 72.7114 100.817 72.2763 100.817C71.4061 100.817 70.742 100.977 70.284 101.298C69.826 101.596 69.597 102.065 69.597 102.706C69.597 103.302 69.7917 103.737 70.181 104.012C70.5703 104.264 71.1428 104.389 71.8984 104.389C72.4251 104.389 72.9633 104.309 73.5128 104.149C74.0624 103.966 74.4975 103.748 74.8181 103.496ZM97.0997 99.2714C97.0997 100.806 96.7676 102.18 96.1036 103.393C95.4624 104.607 94.5693 105.569 93.4243 106.279C92.3023 106.966 90.997 107.309 89.5085 107.309C88.2262 107.309 87.1842 107.103 86.3828 106.691V113.355H81.9861V91.9894L86.3828 91.7833V92.8825C86.9094 92.4474 87.4934 92.1268 88.1346 91.9207C88.7757 91.6917 89.5085 91.5772 90.3329 91.5772C91.5924 91.5772 92.7259 91.8864 93.7335 92.5047C94.7639 93.123 95.5769 94.0046 96.1723 95.1496C96.7905 96.2945 97.0997 97.6685 97.0997 99.2714ZM92.5656 99.4088C92.5656 98.5845 92.4282 97.8746 92.1534 97.2792C91.8786 96.6609 91.4664 96.1915 90.9168 95.8709C90.3902 95.5274 89.7261 95.3556 88.9246 95.3556C87.9399 95.3556 87.0926 95.619 86.3828 96.1457V103.119C86.6805 103.233 87.0239 103.336 87.4132 103.428C87.8254 103.496 88.2491 103.531 88.6842 103.531C89.4856 103.531 90.1726 103.37 90.7451 103.05C91.3176 102.706 91.7641 102.225 92.0847 101.607C92.4053 100.966 92.5656 100.233 92.5656 99.4088ZM114.199 99.2714C114.199 100.806 113.867 102.18 113.203 103.393C112.562 104.607 111.669 105.569 110.524 106.279C109.402 106.966 108.096 107.309 106.608 107.309C105.326 107.309 104.284 107.103 103.482 106.691V113.355H99.0855V91.9894L103.482 91.7833V92.8825C104.009 92.4474 104.593 92.1268 105.234 91.9207C105.875 91.6917 106.608 91.5772 107.432 91.5772C108.692 91.5772 109.825 91.8864 110.833 92.5047C111.863 93.123 112.676 94.0046 113.272 95.1496C113.89 96.2945 114.199 97.6685 114.199 99.2714ZM109.665 99.4088C109.665 98.5845 109.528 97.8746 109.253 97.2792C108.978 96.6609 108.566 96.1915 108.016 95.8709C107.49 95.5274 106.825 95.3556 106.024 95.3556C105.039 95.3556 104.192 95.619 103.482 96.1457V103.119C103.78 103.233 104.123 103.336 104.513 103.428C104.925 103.496 105.348 103.531 105.784 103.531C106.585 103.531 107.272 103.37 107.845 103.05C108.417 102.706 108.864 102.225 109.184 101.607C109.505 100.966 109.665 100.233 109.665 99.4088ZM129.581 100.508H119.895C120.032 101.126 120.307 101.664 120.719 102.122C121.154 102.558 121.704 102.89 122.368 103.119C123.055 103.348 123.856 103.462 124.772 103.462C125.551 103.462 126.387 103.359 127.28 103.153C128.173 102.924 128.906 102.638 129.478 102.294L129.65 106.038C129.054 106.45 128.253 106.771 127.245 107C126.261 107.206 125.333 107.309 124.463 107.309C122.517 107.309 120.845 106.989 119.448 106.347C118.074 105.683 117.032 104.756 116.322 103.565C115.635 102.374 115.292 100.977 115.292 99.3745C115.292 97.7944 115.612 96.4319 116.254 95.287C116.918 94.1191 117.822 93.2146 118.967 92.5734C120.135 91.9093 121.44 91.5772 122.883 91.5772C124.211 91.5772 125.39 91.8406 126.421 92.3673C127.474 92.894 128.287 93.6611 128.86 94.6687C129.455 95.6533 129.753 96.8441 129.753 98.241C129.753 98.5387 129.73 98.9051 129.684 99.3401C129.661 99.7523 129.627 100.142 129.581 100.508ZM122.917 94.7374C122.024 94.7374 121.291 95.0351 120.719 95.6304C120.169 96.2258 119.837 97.0159 119.723 98.0005H125.665C125.665 97.9547 125.665 97.886 125.665 97.7944C125.665 97.6799 125.665 97.5998 125.665 97.554C125.665 96.7067 125.413 96.0312 124.91 95.5274C124.429 95.0007 123.765 94.7374 122.917 94.7374ZM141.594 91.749L141.422 95.9739C141.285 95.9052 141.044 95.8365 140.701 95.7678C140.38 95.6991 140.071 95.6648 139.773 95.6648C139.155 95.6648 138.548 95.7793 137.953 96.0083C137.38 96.2144 136.854 96.5006 136.373 96.867V107H131.976V91.9894L136.373 91.7833V93.5695C137.037 92.8825 137.712 92.3787 138.399 92.0581C139.109 91.7375 139.842 91.5772 140.598 91.5772C140.758 91.5772 140.93 91.5887 141.113 91.6116C141.319 91.6345 141.479 91.6803 141.594 91.749ZM165.647 85.4631L165.475 89.2415C165.315 89.1728 165.098 89.127 164.823 89.1041C164.571 89.0812 164.33 89.0698 164.101 89.0698C163.277 89.0698 162.647 89.253 162.212 89.6193C161.777 89.9857 161.56 90.5926 161.56 91.4399V91.8864H165.304L164.994 95.6648H161.56V107H157.163V95.6648H155.102V91.8864H157.163V91.3712C157.163 89.356 157.747 87.8332 158.915 86.8027C160.083 85.7493 161.651 85.2227 163.62 85.2227C163.941 85.2227 164.296 85.2456 164.685 85.2914C165.075 85.3372 165.395 85.3944 165.647 85.4631ZM182.421 99.4432C182.421 100.955 182.066 102.306 181.356 103.496C180.669 104.687 179.707 105.626 178.471 106.313C177.234 106.977 175.826 107.309 174.246 107.309C172.666 107.309 171.258 106.977 170.021 106.313C168.784 105.626 167.811 104.687 167.101 103.496C166.414 102.306 166.071 100.955 166.071 99.4432C166.071 97.9089 166.414 96.5579 167.101 95.39C167.811 94.1992 168.784 93.2718 170.021 92.6077C171.258 91.9207 172.666 91.5772 174.246 91.5772C175.826 91.5772 177.234 91.9207 178.471 92.6077C179.707 93.2718 180.669 94.1992 181.356 95.39C182.066 96.5579 182.421 97.9089 182.421 99.4432ZM177.887 99.4432C177.887 98.6417 177.727 97.9433 177.406 97.3479C177.085 96.7296 176.65 96.2602 176.101 95.9396C175.551 95.5961 174.933 95.4243 174.246 95.4243C173.559 95.4243 172.941 95.5961 172.391 95.9396C171.841 96.2602 171.406 96.7296 171.086 97.3479C170.765 97.9433 170.605 98.6417 170.605 99.4432C170.605 100.245 170.765 100.955 171.086 101.573C171.406 102.168 171.841 102.638 172.391 102.981C172.964 103.302 173.582 103.462 174.246 103.462C174.956 103.462 175.586 103.302 176.135 102.981C176.685 102.638 177.108 102.168 177.406 101.573C177.727 100.955 177.887 100.245 177.887 99.4432ZM194.017 91.749L193.845 95.9739C193.707 95.9052 193.467 95.8365 193.123 95.7678C192.803 95.6991 192.494 95.6648 192.196 95.6648C191.578 95.6648 190.971 95.7793 190.376 96.0083C189.803 96.2144 189.276 96.5006 188.795 96.867V107H184.399V91.9894L188.795 91.7833V93.5695C189.46 92.8825 190.135 92.3787 190.822 92.0581C191.532 91.7375 192.265 91.5772 193.02 91.5772C193.181 91.5772 193.352 91.5887 193.536 91.6116C193.742 91.6345 193.902 91.6803 194.017 91.749Z" fill="white"/>
<path d="M221.051 107H216.174L214.456 102.019H207.277L205.526 107H200.888L208.308 86.5966H213.632L221.051 107ZM213.289 98.4127L211.64 93.7756C211.479 93.3176 211.342 92.894 211.228 92.5047C211.136 92.0925 211.044 91.6803 210.953 91.2681H210.781C210.689 91.6803 210.586 92.0925 210.472 92.5047C210.38 92.894 210.254 93.3176 210.094 93.7756L208.411 98.4127H213.289ZM237.695 99.2714C237.695 100.806 237.363 102.18 236.699 103.393C236.058 104.607 235.165 105.569 234.02 106.279C232.897 106.966 231.592 107.309 230.104 107.309C228.821 107.309 227.779 107.103 226.978 106.691V113.355H222.581V91.9894L226.978 91.7833V92.8825C227.505 92.4474 228.089 92.1268 228.73 91.9207C229.371 91.6917 230.104 91.5772 230.928 91.5772C232.188 91.5772 233.321 91.8864 234.329 92.5047C235.359 93.123 236.172 94.0046 236.767 95.1496C237.386 96.2945 237.695 97.6685 237.695 99.2714ZM233.161 99.4088C233.161 98.5845 233.023 97.8746 232.749 97.2792C232.474 96.6609 232.062 96.1915 231.512 95.8709C230.985 95.5274 230.321 95.3556 229.52 95.3556C228.535 95.3556 227.688 95.619 226.978 96.1457V103.119C227.276 103.233 227.619 103.336 228.008 103.428C228.421 103.496 228.844 103.531 229.279 103.531C230.081 103.531 230.768 103.37 231.34 103.05C231.913 102.706 232.359 102.225 232.68 101.607C233.001 100.966 233.161 100.233 233.161 99.4088ZM254.794 99.2714C254.794 100.806 254.462 102.18 253.798 103.393C253.157 104.607 252.264 105.569 251.119 106.279C249.997 106.966 248.692 107.309 247.203 107.309C245.921 107.309 244.879 107.103 244.077 106.691V113.355H239.681V91.9894L244.077 91.7833V92.8825C244.604 92.4474 245.188 92.1268 245.829 91.9207C246.47 91.6917 247.203 91.5772 248.028 91.5772C249.287 91.5772 250.421 91.8864 251.428 92.5047C252.459 93.123 253.272 94.0046 253.867 95.1496C254.485 96.2945 254.794 97.6685 254.794 99.2714ZM250.26 99.4088C250.26 98.5845 250.123 97.8746 249.848 97.2792C249.573 96.6609 249.161 96.1915 248.611 95.8709C248.085 95.5274 247.421 95.3556 246.619 95.3556C245.635 95.3556 244.787 95.619 244.077 96.1457V103.119C244.375 103.233 244.719 103.336 245.108 103.428C245.52 103.496 245.944 103.531 246.379 103.531C247.18 103.531 247.867 103.37 248.44 103.05C249.012 102.706 249.459 102.225 249.779 101.607C250.1 100.966 250.26 100.233 250.26 99.4088ZM264.949 107H260.381V90.7185H254.541V86.5966H270.96L270.617 90.7185H264.949V107ZM285.052 107H280.896V105.832C280.346 106.267 279.682 106.622 278.904 106.897C278.125 107.172 277.266 107.309 276.327 107.309C274.656 107.309 273.373 106.908 272.48 106.107C271.61 105.305 271.175 104.195 271.175 102.775C271.175 101.241 271.713 100.084 272.789 99.3058C273.866 98.5043 275.32 98.1036 277.152 98.1036C277.816 98.1036 278.48 98.1608 279.144 98.2753C279.808 98.3898 280.346 98.5387 280.758 98.7219V97.8975C280.758 97.0044 280.472 96.3747 279.9 96.0083C279.35 95.619 278.48 95.4243 277.289 95.4243C276.442 95.4243 275.572 95.5274 274.679 95.7335C273.809 95.9396 273.11 96.2029 272.583 96.5235L272.412 92.6764C273.122 92.3329 273.957 92.0696 274.919 91.8864C275.904 91.6803 276.911 91.5772 277.942 91.5772C280.232 91.5772 281.984 92.0696 283.197 93.0543C284.434 94.016 285.052 95.5388 285.052 97.6227V107ZM280.758 103.496V101.332C280.438 101.172 280.037 101.046 279.556 100.955C279.098 100.863 278.652 100.817 278.217 100.817C277.346 100.817 276.682 100.977 276.224 101.298C275.766 101.596 275.537 102.065 275.537 102.706C275.537 103.302 275.732 103.737 276.121 104.012C276.511 104.264 277.083 104.389 277.839 104.389C278.365 104.389 278.904 104.309 279.453 104.149C280.003 103.966 280.438 103.748 280.758 103.496ZM303.04 99.2028C303.04 100.806 302.697 102.225 302.01 103.462C301.323 104.676 300.338 105.626 299.056 106.313C297.773 106.977 296.239 107.309 294.453 107.309C293.216 107.309 292.037 107.183 290.915 106.931C289.793 106.657 288.797 106.313 287.926 105.901V85.4288L292.323 85.2227V92.8138C292.941 92.3787 293.56 92.0696 294.178 91.8864C294.819 91.6803 295.518 91.5772 296.273 91.5772C297.556 91.5772 298.701 91.8864 299.708 92.5047C300.739 93.123 301.552 94.0046 302.147 95.1496C302.742 96.2716 303.04 97.6227 303.04 99.2028ZM298.506 99.4088C298.506 98.5845 298.369 97.8746 298.094 97.2792C297.819 96.6609 297.407 96.1915 296.857 95.8709C296.331 95.5274 295.666 95.3556 294.865 95.3556C293.88 95.3556 293.033 95.619 292.323 96.1457V103.119C292.621 103.233 292.964 103.336 293.354 103.428C293.766 103.496 294.189 103.531 294.625 103.531C295.426 103.531 296.113 103.37 296.685 103.05C297.258 102.706 297.704 102.225 298.025 101.607C298.346 100.966 298.506 100.233 298.506 99.4088ZM309.423 85.2227V107H305.026V85.4288L309.423 85.2227ZM325.727 100.508H316.04C316.178 101.126 316.452 101.664 316.864 102.122C317.3 102.558 317.849 102.89 318.513 103.119C319.2 103.348 320.002 103.462 320.918 103.462C321.696 103.462 322.532 103.359 323.425 103.153C324.318 102.924 325.051 102.638 325.624 102.294L325.795 106.038C325.2 106.45 324.398 106.771 323.391 107C322.406 107.206 321.479 107.309 320.609 107.309C318.662 107.309 316.99 106.989 315.594 106.347C314.22 105.683 313.178 104.756 312.468 103.565C311.781 102.374 311.437 100.977 311.437 99.3745C311.437 97.7944 311.758 96.4319 312.399 95.287C313.063 94.1191 313.968 93.2146 315.113 92.5734C316.281 91.9093 317.586 91.5772 319.028 91.5772C320.357 91.5772 321.536 91.8406 322.566 92.3673C323.62 92.894 324.433 93.6611 325.005 94.6687C325.601 95.6533 325.898 96.8441 325.898 98.241C325.898 98.5387 325.875 98.9051 325.83 99.3401C325.807 99.7523 325.772 100.142 325.727 100.508ZM319.063 94.7374C318.17 94.7374 317.437 95.0351 316.864 95.6304C316.315 96.2258 315.983 97.0159 315.868 98.0005H321.811C321.811 97.9547 321.811 97.886 321.811 97.7944C321.811 97.6799 321.811 97.5998 321.811 97.554C321.811 96.7067 321.559 96.0312 321.055 95.5274C320.574 95.0007 319.91 94.7374 319.063 94.7374Z" fill="#A0FFFD"/>
<g style="mix-blend-mode:overlay">
<path fill-rule="evenodd" clip-rule="evenodd" d="M477.798 -3.92365L379 -3.92364V-55L477.798 -55L477.798 -3.92365L529.11 -3.92364V94.7405L477.798 95.3454L477.798 47.5157C451.624 47.9714 430.547 69.211 430.547 95.3454H379C379 40.9038 423.155 -3.46485 477.798 -3.92365Z" fill="#A0FFFD"/>
<path fill-rule="evenodd" clip-rule="evenodd" d="M580.892 94.9329L679.69 94.9293V146.187H580.892V94.9293L529.11 94.7407V-3.92344L580.892 -3.92344V43.6713C607.066 43.2156 628.127 22.211 628.127 -3.92344H679.221C679.221 50.5181 635.536 94.4705 580.892 94.9293V94.9329Z" fill="#06D8D4" fill-opacity="0.5"/>
<path fill-rule="evenodd" clip-rule="evenodd" d="M778.489 47.0959L679.221 47.0959V-3.92334L778.489 -3.92334V47.0995L830.036 47.0995V146.187H778.489V98.3574C752.315 98.8132 731.238 120.053 731.238 146.187H679.691C679.691 91.7456 723.845 47.5583 778.489 47.0995V47.0959Z" fill="#A0FFFD" fill-opacity="0.7"/>
</g>
</g>
<rect x="0.5" y="0.5" width="829" height="134" rx="13.5" stroke="url(#paint2_linear_623_6287)" style="mix-blend-mode:overlay"/>
<rect x="0.5" y="0.5" width="829" height="134" rx="13.5" stroke="url(#paint3_linear_623_6287)" stroke-opacity="0.1"/>
<rect x="0.5" y="0.5" width="829" height="134" rx="13.5" stroke="white" stroke-opacity="0.1"/>
<defs>
<radialGradient id="paint0_radial_623_6287" cx="0" cy="0" r="1" gradientUnits="userSpaceOnUse" gradientTransform="translate(9.4458e-07 165.586) rotate(17.7974) scale(413.385 308.037)">
<stop offset="0.100613" stop-color="#A0FFFD" stop-opacity="0"/>
<stop offset="0.515" stop-color="#00FFFB"/>
<stop offset="1" stop-color="#00FFFB" stop-opacity="0.35"/>
</radialGradient>
<radialGradient id="paint1_radial_623_6287" cx="0" cy="0" r="1" gradientUnits="userSpaceOnUse" gradientTransform="translate(1075 -132) rotate(110.154) scale(458.578 1768.11)">
<stop stop-color="#2BB1AF" stop-opacity="0"/>
<stop offset="0.285" stop-color="#2BB1AF"/>
<stop offset="1" stop-color="#2BB1AF" stop-opacity="0.184314"/>
</radialGradient>
<linearGradient id="paint2_linear_623_6287" x1="415" y1="0" x2="415" y2="135" gradientUnits="userSpaceOnUse">
<stop stop-color="white" stop-opacity="0.6"/>
<stop offset="0.5" stop-color="white" stop-opacity="0"/>
<stop offset="1" stop-color="white"/>
</linearGradient>
<linearGradient id="paint3_linear_623_6287" x1="415" y1="0" x2="415" y2="135" gradientUnits="userSpaceOnUse">
<stop stop-color="white" stop-opacity="0.6"/>
<stop offset="0.5" stop-color="white" stop-opacity="0"/>
<stop offset="1" stop-color="white"/>
</linearGradient>
<clipPath id="clip0_623_6287">
<rect width="830" height="135" rx="14" fill="white"/>
</clipPath>
</defs>
</svg>
